<svg width="969" height="973" viewBox="0 0 969 973" fill="none" xmlns="http://www.w3.org/2000/svg">
<path d="M78.9858 681.155C86.2526 681.155 95.9789 680.379 102.484 683.928C107.995 686.933 115.019 687.402 120.874 689.693C126.379 691.847 131.97 692.48 137.586 694.144C140.266 694.938 143.707 695.03 146.489 695.458C150.161 696.023 153.619 697.147 157.289 697.72C166.825 699.21 176.279 701.614 185.896 702.683C196.376 703.847 206.844 704.81 217.276 706.258C221.462 706.84 225.475 708.157 229.682 708.594C232.788 708.916 235.562 709.628 238.585 710.309C241.187 710.894 243.864 710.506 246.466 711.075C252.234 712.336 257.962 712.024 263.871 712.024C266.125 712.024 273.642 713.355 274.745 710.965C278.209 703.46 282.01 692.993 279.634 684.438C278.451 680.178 279.041 675.444 276.97 671.303C273.986 665.333 266.782 661.105 260.916 658.824C255.474 656.708 249.8 655.392 244.168 653.898C238.395 652.367 233.095 650.516 227.091 650.249C220.953 649.976 214.899 648.602 208.774 648.352C201.81 648.068 194.93 648.046 188.012 647.002C181.632 646.039 174.745 645.308 168.309 645.031C162.044 644.762 155.454 642.873 149.262 641.747C135.95 639.327 122.442 636.881 109.198 634.012C103.447 632.766 93.6355 632.69 90.4431 626.641C87.3801 620.838 87.5241 614.796 87.5241 608.251C87.5241 601.938 88.7999 597.055 90.0053 591.029C91.1412 585.349 94.3341 580.016 95.2595 574.463C95.9912 570.073 97.8401 565.996 98.5435 561.619C98.9995 558.782 98.6948 555.726 99.4922 552.935C99.6733 552.301 99.748 548.189 100.149 547.973C101.767 547.101 109.235 550.279 110.84 551.111C119.055 555.37 122.489 563.162 126.931 570.778C128.572 573.591 129.445 576.687 130.617 579.681C132.3 583.984 137.038 587.142 140.724 589.46C149.214 594.801 159.794 594.698 169.33 596.721C180.451 599.08 191.794 600.83 202.973 602.997C208.26 604.022 213.601 605.456 218.735 607.084C223.808 608.692 229.073 609.42 234.133 611.024C245.824 614.731 258.388 616.108 270.476 618.103C274.342 618.741 279.776 620.903 283.246 618.249C288.948 613.889 290.91 606.82 293.39 600.443C295.894 594.003 290.183 584.842 285.801 580.703C274.836 570.347 261.337 565.961 247.123 562.276C234.42 558.983 220.137 559.55 207.059 558.956C196.015 558.454 184.896 555.32 174.877 550.746C165.644 546.531 156.76 541.92 148.277 536.333C140.411 531.153 132.4 524.808 123.647 521.227C120.894 520.101 108.256 515.004 107.921 512.324C107.259 507.03 107.904 501.698 110.658 497.108C114.986 489.895 121.117 486.511 129.412 485.578C139.769 484.413 147.898 483.418 157.946 486.892C163.382 488.771 168.656 491.238 173.709 493.97C179.276 496.981 185.285 499.281 190.64 502.655C201.094 509.242 211.189 514.157 222.822 518.345C228.524 520.397 233.408 523.392 239.57 524.146C246.132 524.95 251.955 527.656 258.289 529.437C269.119 532.483 279.858 535.502 291.091 536.625C294.71 536.987 300.987 537.367 303.205 533.67C306.74 527.778 305.572 516.874 301.49 511.704C294.246 502.527 285.294 499.994 274.197 497.108C267.59 495.39 261.234 492.848 254.494 491.635C248.791 490.609 243.187 490.215 237.782 487.913C229.334 484.317 220.592 482.131 211.876 479.375C203.737 476.802 195.75 473.839 187.502 471.64C171.557 467.388 156.008 461.824 140.14 457.336C134.969 455.874 129.642 454.295 124.596 452.447C122.672 451.742 119.943 451.615 119.196 449.455C117.93 445.798 123.63 437.465 125.472 434.349C129.413 427.68 135.746 423.332 142.037 419.243C144.378 417.721 148.62 418.411 151.305 418.44C157.729 418.508 163.679 420.032 169.841 421.724C175.636 423.315 181.593 424.004 187.429 425.409C195.248 427.292 202.613 431.059 210.27 433.51C226.9 438.831 243.211 445.545 259.602 451.571C271.581 455.975 285.258 459.492 298.024 460.438C299.392 460.539 303.494 461.171 304.592 460.073C306.472 458.193 307.269 454.503 308.204 452.082C311.066 444.675 304.572 433.969 299.666 428.949C291.034 420.116 278.075 418.532 266.462 416.47C249.852 413.52 234.716 405.153 218.735 400.05C208.115 396.659 197.827 392.257 187.21 388.812C180.908 386.767 174.416 384.635 168.236 382.28C164.97 381.036 160.875 380.503 157.873 378.668C155.898 377.461 156.365 374.076 156.523 372.1C156.809 368.532 160.513 365.539 162.726 362.942C165.584 359.587 168.468 356.475 172.25 354.111C179.369 349.662 187.58 343.566 196.259 343.566C207.072 343.566 216.956 346.896 227.128 350.207C254.629 359.161 281.259 371.267 309.81 376.734C317.275 378.164 327.803 378.567 331.484 370.203C333.235 366.222 332.339 362.454 330.207 358.745C328.833 356.357 327.476 352.731 325.135 351.083C323.312 349.8 321.71 349.34 319.516 348.967C314.162 348.055 308.449 347.811 303.023 347.215C290.641 345.856 276.253 344.087 264.71 339.115C255.789 335.272 248.996 329.537 241.066 324.374C237.274 321.904 233.711 318.796 236.104 314.011C240.488 305.243 249.53 298.344 257.121 292.483C266.117 285.537 275.166 278.685 283.392 270.809C287.389 266.983 292.166 264.333 297.258 262.636C301.757 261.136 302.606 273.849 303.278 276.538C304.388 280.978 303.141 285.844 303.643 290.367C304.298 296.257 309.222 301.432 311.817 306.421C319.522 321.24 331.243 335.104 336.41 351.119C339.218 359.824 342.813 368.562 346.298 377.026C349.614 385.08 352.168 393.494 355.821 401.364C358.333 406.774 362.482 411.318 365.929 416.105C369.674 421.307 373.373 426.511 377.313 431.576C381.279 436.675 387.37 440.629 392.419 444.711C399.219 450.209 406.331 455.203 413.071 460.766C419.304 465.911 425.915 471.008 432.702 475.434C436.669 478.022 440.331 481.091 443.94 484.119C448.576 488.007 454.204 490.574 458.9 494.299C465.403 499.456 472.774 503.545 479.334 508.748C483.705 512.215 489.126 514.933 494.002 517.615C499.131 520.436 503.355 524.255 507.94 527.831C512.859 531.668 518.191 534.512 523.265 538.012C527.464 540.907 531.419 544.236 536.073 546.44C545.175 550.752 553.723 556.39 563.037 560.306C575.12 565.386 586.46 572.188 598.577 577.236C607.666 581.024 617.41 584.314 625.578 590.007C634.423 596.172 645.268 601.32 652.944 608.835C658.742 614.511 666.572 618.998 671.772 625.182C677.162 631.591 682.301 638.085 688.192 644.083C693.506 649.493 698.239 655.625 703.079 661.451C705.288 664.11 706.309 667.184 708.041 670.135C711.464 675.967 713.856 683.01 716.069 689.401C717.781 694.349 718.535 698.854 718.003 704.179C717.725 706.951 714.213 709.883 712.055 711.367C707.726 714.343 702.097 716.301 697.022 717.57C692.461 718.71 687.845 719.785 683.266 720.854C680.583 721.48 677.745 722.794 675.056 723.152C668.013 724.092 666.804 714.698 665.788 710.053C664.026 701.998 664.839 693.333 664.839 685.095C664.839 677.188 663.563 671.139 659.22 664.37C656.947 660.826 653.986 656.693 650.901 653.861C647.931 651.135 645.162 647.634 641.852 645.323C636.275 641.43 632.071 639.12 625.067 639.12C617.733 639.12 610.399 639.12 603.065 639.12C594.661 639.12 586.256 639.12 577.852 639.12C573.023 639.12 568.194 639.12 563.366 639.12C560.97 639.12 553.839 638.673 556.178 639.193C561.899 640.465 567.599 642.11 573.218 643.754C581.282 646.115 590.201 649.099 598.504 650.286C604.103 651.085 609.012 653.992 614.267 655.868C620.7 658.166 603.546 647.388 597.957 643.462C589.025 637.189 580.009 630.69 570.627 625.109C560.108 618.85 548.896 613.618 538.225 607.594C531.82 603.978 525.391 600.316 518.741 597.086C516.514 596.004 514.251 595.975 512.027 595.116C506.246 592.882 500.61 590.417 494.878 588.037C486.288 584.47 479.251 578.385 472.328 572.347C463.961 565.049 456.106 557.332 448.1 549.651C441.826 543.633 436.445 536.72 430.221 530.605C422.483 523.001 413.757 516.396 405.482 509.405C390.863 497.055 376.846 483.693 362.791 470.691C358.59 466.806 354.714 461.52 349.326 459.234C344.658 457.253 343.1 460.883 340.715 464.415C333.088 475.714 336.173 493.012 340.095 505.136C341.521 509.543 343.889 514.557 344.291 519.184C344.66 523.426 343.713 527.616 343.671 531.845C343.498 549.122 339.216 565.897 337.906 583.074C337.319 590.771 338.014 597.955 335.789 605.478C334.196 610.868 332.467 616.203 331.192 621.679C330.258 625.69 328.951 631.321 330.827 635.18C332.532 638.688 336.322 640.771 339.73 642.258C345.578 644.81 356.931 645.141 362.426 641.237C365.763 638.865 367.215 635.407 367.315 631.312C367.539 622.126 367.926 612.548 366.658 603.435C364.682 589.231 366.527 574.578 366.658 560.306C366.709 554.812 366.759 548.791 372.277 546.148C377.2 543.791 380.898 545.939 384.392 549.432C396.65 561.691 400.566 581.624 401.796 598.363C402.896 613.323 402.903 627.835 410.043 641.638C410.778 643.059 415.28 651.321 417.851 649.264C425.002 643.543 430.124 634.353 431.571 625.401C433.315 614.61 431.585 603.445 430.731 592.634C430.342 587.702 437.881 596.859 438.868 598.108C449.297 611.297 449.648 630.094 463.972 639.814C478.544 649.701 494.368 653.082 511.662 653.606C523.937 653.978 538.731 653.589 549.172 661.159C551.995 663.206 558.911 667.108 560.337 670.318C561.52 672.979 554.558 673.674 553.405 673.93C530.95 678.92 506.827 674.851 484.004 676.046C470.178 676.77 455.56 679.557 442.189 683.271C434.959 685.279 447.105 700.917 449.413 703.193C458.16 711.82 458.443 723.835 469 729.5C474.909 732.671 490.845 728.848 497 731.5C499.484 732.57 511.151 731.626 511.151 735.011C511.151 739.256 510.302 741.653 507.065 744.717C499.161 752.199 489.051 757.403 479.99 763.399C471.105 769.279 473.431 779.694 479.261 787.189C483.594 792.761 491.937 799.975 492.104 807.695C492.202 812.203 490.29 815.374 489.331 819.591C489.26 819.905 488.411 821.871 489.331 821.196C493.599 818.067 497.885 814.881 501.372 810.87C507.239 804.124 512.067 796.475 514.143 787.7C516.222 778.914 516.341 769.814 516.734 760.845C517.235 749.427 517.63 738.44 516.77 727.02C516.204 719.494 517.174 711.712 516.077 704.252C515.678 701.537 515.092 699.245 515.092 696.48C515.092 689.349 514.959 684.99 521.186 680.461C531.731 672.792 545.126 664.047 558.039 661.269C576.109 657.38 587.863 672.696 604.561 675.9C611.411 677.215 620.032 677.658 626.381 680.498C631.692 682.874 638.295 680.074 643.311 678.381C652.105 675.414 657.612 668.424 664.985 663.421C670.625 659.594 675.801 655.642 681.916 652.584C689.989 648.548 699.116 648.428 707.859 649.921C720.88 652.144 733.972 654.224 746.938 656.817C766.921 660.814 787.632 667.468 808.311 665.063C827.829 662.794 848.552 658.217 864.867 646.965C872.108 641.971 877.479 636.008 882.528 628.94C887.12 622.51 888.817 615.331 891.431 608.105C894.925 598.444 894.373 587.47 896.174 577.382C896.99 572.815 898.964 568.479 899.969 563.955C901.277 558.068 902.435 552.286 903.545 546.367C905.302 536.997 906.504 527.096 905.734 517.469C904.6 503.295 901.312 489.116 899.604 474.96C898.805 468.34 898.126 461.484 896.977 454.928C895.786 448.132 895.172 440.925 893.438 434.276C889.822 420.416 888.262 406.189 882.746 392.825C876.472 377.623 868.316 363.493 857.278 351.229C849.304 342.37 839.945 334.407 830.714 326.855C825.963 322.967 821.164 319.212 816.046 315.835C811.169 312.618 807.056 307.864 801.305 306.13C792.84 303.577 785.343 307.837 777.661 310.581C772.374 312.469 776.186 323.814 777.807 326.928C782.788 336.501 788.003 344.198 795.175 352.251C800.045 357.718 805.806 362.122 811.011 367.211C815.909 372 819.36 377.04 823.563 382.317C831.356 392.099 839.669 402.27 845.091 413.624C851.61 427.277 855.156 440.819 858.372 455.585C862.863 476.202 867.411 497.027 865.451 518.308C863.798 536.256 860.423 555.602 852.206 571.836C848.857 578.452 843.594 586.37 838.085 591.503C831.917 597.251 822.711 600.672 815.207 604.311C791.655 615.73 761.427 621.733 738.764 605.843C728.922 598.942 722.505 587.626 717.09 577.09C714.272 571.606 713.942 565.442 718.623 560.671C732.765 546.257 755.501 555.052 772.844 555.052C782.408 555.052 793.358 545.786 798.751 538.595C807.602 526.794 810.169 507.969 810.609 493.642C811.121 477.031 813.328 459.001 807.69 443.07C804.061 432.812 798.959 423.974 793.715 414.536C789.312 406.61 787.305 397.604 782.222 389.979C777.274 382.558 772.237 373.787 765.328 367.94C762.476 365.528 759.024 365.497 755.512 364.912C751.667 364.271 748.805 368.073 747.266 371.297C743.891 378.369 742.997 384.196 742.997 391.913C742.997 409.434 746.664 427.934 751.535 444.711C753.57 451.719 755.476 459.054 755.476 466.385C755.476 473.219 756.603 480.326 754.016 486.892C749.51 498.331 740.021 503.463 729.277 508.055C722.546 510.932 715.805 514.201 708.917 516.666C707.213 517.276 702.85 518.548 700.963 517.469C696.083 514.681 694.242 504.454 692.643 499.809C689.947 491.973 685.256 483.513 686.002 474.924C686.607 467.973 688.043 460.907 691.768 454.928C694.635 450.325 697.844 445.551 699.795 440.479C704.323 428.707 702.24 418.252 698.481 406.399C696.159 399.074 693.567 389.26 695.708 381.66C697.137 376.59 702.115 371.527 705.341 367.43C708.701 363.163 712.469 359.088 717.09 356.191C717.689 355.816 719.865 353.946 720.374 355.243C722.351 360.275 722.556 366.779 723.147 372.1C725.037 389.105 723.544 406.862 723.257 423.95C723.124 431.868 722.474 439.781 722.782 447.704C723.033 454.137 724.177 460.505 724.57 466.933C725.168 476.702 725.849 486.665 730.518 495.503C734.049 502.186 740.626 506.447 746.354 511.12C758.86 521.323 768.117 534.339 780.178 544.908C788.04 551.797 795.6 559.11 802.655 566.837C807.906 572.588 810.97 581.163 812.799 588.621C814.618 596.04 806.029 592.411 801.524 590.992C790.831 587.625 780.364 583.933 769.414 581.396C757.902 578.729 746.153 577.186 734.678 574.354C713.679 569.171 691.633 559.208 675.238 544.725C668.647 538.903 663.303 532.203 657.286 525.861C652.039 520.331 646.573 515.293 641.742 509.332C615.901 477.443 578.677 462.868 542.02 446.682C526.179 439.687 510.288 432.656 494.294 426.03C486.003 422.595 477.29 418.795 469.482 414.353C462.484 410.373 456.633 405.764 450.216 400.999C437.47 391.534 426.729 380.338 415.698 368.962C410.371 363.469 405.205 357.245 401.468 350.572C396.638 341.946 393.442 333.31 389.646 324.228C386.509 316.721 384.648 309.056 382.385 301.277C380.698 295.478 379.201 290.328 379.867 284.164C380.255 280.577 381.95 277.685 385.778 277.924C388.78 278.112 391.227 279.613 393.951 280.734C397.37 282.14 400.796 283.095 403.949 285.112C418.554 294.459 428.033 309.599 437.628 323.534C449.391 340.619 461.978 357.021 476.196 372.173C492.203 389.232 511.774 402.976 531.074 416.032C540.61 422.483 551.274 426.702 561.432 432.014C572.034 437.557 582.588 443.232 593.25 448.652C609.262 456.793 625.632 466.031 643.895 467.553C653.356 468.341 656.092 463.786 656.301 454.49C656.57 442.526 656.323 432.169 649.733 421.724C643.352 411.608 632.279 405.533 621.127 402.02C606.768 397.499 592.956 391.483 578.581 387.06C550.17 378.318 523.082 366.716 497.87 350.718C485.952 343.156 473.359 334.891 462.914 325.395C456.09 319.191 448.232 312.107 443.648 304.013C440.904 299.167 442.297 292.162 443.648 287.083C446.077 277.954 455.161 274.105 463.863 273.4C473.756 272.598 481.834 276.613 490.28 281.281C499.001 286.101 506.169 291.635 512.538 299.306C527.969 317.894 546.056 333.386 566.942 345.5C587.486 357.416 607.013 371.03 627.767 382.609C637.172 387.855 664.879 399.627 669.656 381.806C671.875 373.528 664.813 363.932 661.19 357.14C656.153 347.695 649.798 341.508 641.122 335.32C631.311 328.323 620.865 322.893 610.107 317.514C596.315 310.618 582.593 303.715 568.438 297.591C556.453 292.407 545.772 284.591 534.796 277.596C526.213 272.126 516.818 266.194 510.057 258.476C506.052 253.905 501.499 248.082 504.073 241.691C507.557 233.041 522.154 233.56 529.322 235.416C544.396 239.317 557.163 252.599 568.949 262.161C581.86 272.637 595.059 282.814 608.429 292.702C621.546 302.404 635.953 310.523 649.77 319.192C659.811 325.493 670.593 330.907 680.967 336.67C688.21 340.694 696.354 347.141 704.465 349.04C710.54 350.461 715.198 347.141 718.951 342.472C728.998 329.974 723.045 314.843 714.755 303.539C708.357 294.815 699.1 288.703 690.126 282.85C680.073 276.294 670.338 269.356 660.169 263.001C646.971 254.752 633.504 246.262 620.871 237.167C607.901 227.828 593.661 220.908 579.494 213.596C562.036 204.585 542.71 199.83 524.396 192.87C518.232 190.528 515.569 186.483 511.918 181.158C509.754 178.003 506.039 173.642 505.897 169.81C505.776 166.531 504.793 162.598 506.846 159.666C509.213 156.284 514.352 155.462 518.157 155.871C521.319 156.211 524.076 157.476 527.097 158.353C532.565 159.94 538.162 161.188 543.699 162.512C552.717 164.669 559.829 168.524 568.219 172.291C585.151 179.893 601.769 188.213 618.791 195.57C642.613 205.866 663.32 220.493 685.054 234.503C692.641 239.394 698.547 244.376 703.59 251.58C707.655 257.387 711.301 264.459 716.434 269.386C719.235 272.075 722.192 275.69 724.315 278.946C726.53 282.342 730.175 284.998 732.853 288.104C735.69 291.395 738.944 294.195 742.012 297.263C743.73 298.981 744.521 300.218 746.938 300.218" stroke="white" stroke-width="64" stroke-linecap="round"/>
<path d="M337.246 675.992C342.869 677.815 348.022 680.579 354.056 680.579C355.472 680.579 356.844 680.77 358.262 680.77C359.785 680.77 361.503 680.551 363.009 680.813C364.586 681.087 366.233 681.366 367.819 681.524C368.482 681.591 369.198 681.726 369.848 681.726C370.557 681.726 371.134 682.094 371.844 682.108C373.003 682.132 374.054 682.491 375.2 682.491C376.827 682.491 378.493 682.703 380.063 683.107C381.642 683.513 383.478 683.255 385.118 683.255C385.695 683.255 386.813 683.451 385.564 683.138C382.572 682.39 379.424 681.857 376.665 680.431C375.106 679.624 387.08 675.262 385.5 674.5C407.156 676.879 368.359 673.5 367.5 673.5C352.589 673.5 338.969 673.882 324.454 676.492C314.906 678.208 336.649 678.034 328.5 682.108" stroke="#FF8D00" stroke-width="36" stroke-linecap="round"/>
<path d="M311.233 687.8C317.998 688.552 326.463 696.622 333.283 699.029C343.899 702.776 355.316 700.94 366.305 700.94C379.442 700.94 389.692 706.35 402.439 706.35" stroke="#FF8D00" stroke-width="36" stroke-linecap="round"/>
<path d="M537.5 670C539.865 668.949 552.974 673.553 555 675C565.999 682.856 572 681.5 588.906 688.225C596.5 691 600 690.5 606.565 689.6C612.5 687.461 613.484 688.378 617.347 688.378C620.057 688.378 622.593 687.461 625.276 687.461" stroke="#FF8D00" stroke-width="36" stroke-linecap="round"/>
<path d="M321.477 707.327C323.744 708.25 325.852 710.565 327.59 712.234C330.588 715.112 333.272 718.206 335.978 721.352C339.331 725.251 341.001 728.999 342.498 733.849C343.856 738.25 343.865 743.28 344.077 747.84C344.384 754.445 343.529 760.943 342.498 767.435C339.063 789.062 332.547 810.045 322.021 829.342C319.8 833.413 316.975 837.173 314.448 841.058C311.501 845.587 308.499 850.089 305.126 854.319C301.813 858.474 298.27 862.243 294.616 866.086C291.605 869.252 288.025 871.568 284.666 874.338C280.383 877.869 275.739 881.049 271.591 884.73C268.202 887.738 265.18 891.065 264.188 895.596C263.317 899.58 265.637 900.042 268.841 901.403C273.376 903.331 278.084 903.807 282.968 904.222C292.923 905.067 302.84 906.273 312.784 907.278C315.106 907.513 317.476 907.343 319.779 907.686C322.485 908.089 325.198 908.535 327.913 908.874C331.764 909.356 335.707 909.476 339.578 909.791C345.904 910.306 352.266 910.798 358.612 910.895C365.181 910.995 371.759 911.59 378.325 911.863C384.028 912.1 389.739 912.223 395.44 912.474C405.132 912.902 414.809 913.889 424.509 914.223C431.152 914.452 437.775 915.394 444.41 915.836C448.24 916.092 455.023 917.227 456.635 912.508C457.813 909.058 458.122 905.173 458.689 901.59C459.378 897.243 459.943 892.956 459.301 888.567C458.237 881.296 456.556 874.539 454.665 867.478C452.985 861.204 450.895 854.965 448.637 848.869C447.419 845.58 446.437 842.29 445.106 839.037C443.704 835.61 441.637 832.595 440.08 829.257C436.572 821.741 433.845 813.917 430.35 806.42C428.833 803.164 427.279 800 425.528 796.86C423.767 793.702 421.576 790.846 419.925 787.606C416.485 780.858 411.33 775.142 408.277 768.148C404.706 759.966 402.373 751.591 401.485 742.712C401.106 738.917 400.9 733.857 399.108 730.402C397.771 727.824 395.465 727.019 392.69 726.276C388.095 725.046 382.897 724.748 378.155 724.748C373.501 724.748 368.897 724.442 364.249 724.442C359.284 724.442 354.601 725.033 349.901 726.718C347.471 727.589 349.796 729.551 350.954 730.521C353.525 732.673 356.344 733.73 359.529 734.681C367.885 737.177 375.925 740.416 384.2 743.154C387.251 744.163 390.403 744.993 393.403 746.142C394.18 746.44 395.524 746.79 396.154 747.365C396.661 747.828 393.755 749.009 393.624 749.063C388.208 751.275 382.545 752.559 376.865 753.851C369.632 755.496 362.393 757.343 355.301 759.522C352.117 760.5 348.278 761.584 345.962 764.158C344.515 765.765 346.819 767.606 348.186 768.436C349.868 769.457 351.831 769.849 353.722 770.287C356.544 770.941 359.334 771.724 362.16 772.359C366.673 773.372 371.38 773.825 375.812 775.177C377.936 775.825 380.789 776.855 382.604 778.166C383.325 778.687 383.581 779.245 383.521 780.135C383.413 781.721 381.176 783.803 380.108 784.805C377.183 787.547 373.745 790.037 370.413 792.259C368.286 793.676 366.258 795.208 364.266 796.809C363.241 797.633 361.828 798.393 361.447 799.764C360.09 804.651 371.405 805.057 373.91 805.112C378.588 805.215 383.405 805.035 388.071 804.671C390.717 804.464 393.126 804.081 395.746 804.671C398.484 805.287 402.162 806.27 401.485 809.714C400.203 816.24 390.164 818.651 384.896 820.224C376.412 822.758 367.109 821.547 358.663 824.214C357.374 824.621 354.087 826.272 353.637 827.746C353.138 829.377 354.986 830.503 356.15 831.176C367.002 837.448 379.678 835.541 391.569 834.657C396.58 834.284 401.38 833.8 406.307 832.772C410.036 831.994 414.209 831.402 418.023 831.787C424.201 832.411 421.119 838.89 418.499 841.788C415.58 845.017 411.432 846.67 407.292 847.748C400.487 849.52 393.236 849.82 386.271 850.652C378.396 851.592 370.522 852.564 362.636 853.419C355.487 854.194 348.13 854.549 341.106 856.17C339.832 856.464 336.093 856.859 335.418 858.36C334.461 860.487 335.704 863.588 337.455 864.88C340.92 867.438 345.614 868.809 349.799 869.482C357.585 870.733 365.916 870.479 373.741 869.855C382.949 869.121 392.126 868.064 401.349 867.478C408.313 867.036 415.392 866.422 422.336 867.478C424.756 867.846 431.908 870.152 429.485 874.066C427.64 877.045 421.873 878.602 418.804 879.67C408.967 883.093 398.651 885.343 388.241 885.986C369.255 887.159 350.008 886.295 331.054 884.882C323.985 884.355 316.97 883.982 309.88 883.982C305.991 883.982 302.001 884.083 298.487 885.952C296.038 887.255 295.905 889.916 297.231 892.302C298.5 894.588 301.054 895.887 303.428 896.7C309.5 898.781 316.136 899.636 322.53 899.807C336.107 900.172 349.983 897.99 363.434 896.344C374.708 894.964 385.913 893.139 397.189 891.793C411.874 890.041 426.394 889.402 441.183 889.484C445.286 889.507 449.666 890.487 453.511 891.929" stroke="#FF8D00" stroke-width="36" stroke-linecap="round"/>
<path d="M554.369 706.716C557.413 708.406 557.747 713.147 558.173 716.19C558.493 718.479 558.343 720.847 558.343 723.152C558.343 726.77 558.672 730.364 558.648 733.985C558.576 745.027 556.531 755.88 554.964 766.772C552.927 780.927 550.037 794.731 546.27 808.508C544.602 814.607 543.056 820.876 540.922 826.829C539.07 831.991 536.62 836.856 534.435 841.873C529.746 852.642 525.055 863.233 521.667 874.508C519.326 882.296 517.269 890.28 515.384 898.194C514.04 903.841 511.155 908.99 511.598 914.97C511.72 916.618 512.995 916.671 514.399 916.685C518.184 916.724 522.334 917.123 526.047 916.312C533.62 914.657 536.543 909.187 539.088 902.473C540.895 897.705 542.631 892.967 543.91 888.024C545.252 882.832 545.588 877.578 546.355 872.3C547.811 862.284 549.717 852.33 551.754 842.416C552.683 837.897 554.03 833.532 554.845 828.969C555.71 824.121 556.768 819.36 558.02 814.604C559.644 808.434 561.507 802.223 562.129 795.858C562.805 788.937 564.317 782.195 565.033 775.296C565.649 769.349 565.496 763.342 565.983 757.383C566.439 751.81 566.337 745.981 567.274 740.471C568.462 733.485 569.056 726.153 571.96 719.62C573.015 717.247 574.493 715.259 576.816 717.583C580.678 721.444 581.467 727.277 582.046 732.457C582.523 736.718 582.36 741.391 581.995 745.65C581.496 751.472 580.777 757.32 580.178 763.139C579.745 767.356 578.868 771.487 578.107 775.653C577.441 779.3 577.166 782.973 576.647 786.638C575.785 792.718 574.854 798.802 573.93 804.875C572.363 815.171 572.018 825.739 571.553 836.134C571.131 845.542 571.092 854.947 568.972 864.184C567.369 871.169 564.398 877.702 562.621 884.611C560.573 892.575 558.887 900.842 557.901 909.01C557.518 912.182 556.108 917.398 557.663 920.353C559.179 923.233 564.704 921.66 566.832 920.726C572.24 918.353 576.981 915.023 580.501 910.267C585.289 903.796 587.604 896.178 588.278 888.21C589.042 879.17 590.369 870.284 592.03 861.366C592.992 856.2 593.535 850.965 594.407 845.778C595.314 840.389 596.242 835.002 596.615 829.546C596.87 825.803 597.388 822.15 597.481 818.39C597.616 812.905 596.922 807.696 596.394 802.243C595.457 792.562 595.425 782.744 595.935 773.038C596.565 761.081 596.547 749.159 596.547 737.177C596.547 731.412 599.189 726.053 599.297 720.299C599.315 719.37 599.603 718.509 599.603 717.566C599.603 716.184 600.476 717.953 600.673 718.499C602.172 722.665 603.123 727.195 603.882 731.54C605.154 738.823 606.32 746.139 607.091 753.494C607.636 758.692 608.577 763.82 609.247 768.997C609.899 774.028 610.085 779.15 610.368 784.21C610.757 791.166 611.533 797.905 610.979 804.892C610.711 808.28 610.911 811.751 610.911 815.147C610.911 821.151 610.434 827.13 610.317 833.129C610.112 843.69 609.689 854.267 609.689 864.829C609.689 871.153 609.425 877.525 608.925 883.83C608.292 891.805 608.466 899.793 608.466 907.788C608.466 913.268 608.308 919.964 610.436 925.107C611.757 928.299 614.687 929.556 618.009 929.522C628.617 929.413 632.661 917.356 633.817 908.688C634.813 901.215 633.312 894.539 632.034 887.226C630.992 881.262 629.873 875.489 628.332 869.618C627.144 865.087 626.137 860.454 625.582 855.796C625.394 854.221 625.276 852.645 625.276 851.059C625.276 850.429 625.19 850.436 625.616 850.94C633.56 860.344 639.7 870.769 646.365 881.079C651.28 888.682 656.007 896.851 662.461 903.305C665.111 905.955 668.18 907.954 671.359 909.893C674.951 912.085 678.768 912.389 682.871 912.644C690.757 913.133 698.149 914.997 705.81 916.821C709.294 917.65 716.144 919.483 710.666 923.256C707.745 925.269 704.434 926.012 701.073 927.009C697.084 928.191 692.853 928.644 688.712 928.842C684.164 929.061 679.435 928.546 674.924 927.993C670.787 927.487 666.693 927.097 662.937 925.107C653.898 920.318 650.965 909.036 649.404 899.824C648.207 892.76 646.87 885.697 645.584 878.651C644.415 872.252 643.075 865.785 640.761 859.685C638.365 853.365 635.277 847.305 631.66 841.601C629.531 838.243 626.892 835.4 624.597 832.195C618.853 824.171 615.191 814.937 610.945 806.046C606.504 796.746 601.385 787.649 597.497 778.098C593.885 769.225 591.715 759.647 590.451 750.166C589.558 743.47 589.383 736.472 591.996 730.113C593.779 725.775 596.345 721.103 599.297 717.413" stroke="#FF8D00" stroke-width="36" stroke-linecap="round"/>
<path d="M346.744 65.0394C347.001 71.4733 349.085 77.8797 349.298 84.293C349.492 90.1112 350.501 95.8488 350.907 101.654C352.618 126.123 357.415 150.324 359.185 174.79C359.816 183.503 362.844 191.394 365.572 199.578C367.717 206.013 371.833 211.571 376.878 215.993C381.681 220.203 387.746 222.457 393.672 224.603C397.771 226.087 402.159 226.399 406.397 227.276C410.476 228.12 415.19 228.673 419.335 227.844C425.939 226.523 431.621 219.775 436.555 215.568C441.171 211.63 444.732 206.055 446.536 200.24C447.24 197.971 447.248 195.429 447.648 193.097C448.288 189.369 448.925 185.7 448.925 181.909C448.925 174.268 448.793 166.675 447.435 159.131C446.09 151.66 441.589 144.788 438.305 138.056C436.113 133.563 433.049 130.567 429.955 126.727C419.627 113.905 405.88 104.552 393.482 93.9908C388.44 89.6953 382.422 86.4995 377.067 82.59C372.021 78.9052 367.27 75.0265 361.645 72.1827C359.237 70.9648 356.887 69.8161 354.668 68.2799C353.547 67.5039 355.472 77.2018 355.685 78.0013C358.513 88.6068 362.835 97.7132 369.829 106.243C372.894 109.981 376.707 112.953 379.48 116.958C381.626 120.058 383.928 122.865 386.245 125.828C389.467 129.948 393.304 133.313 396.983 136.992C401.686 141.695 406.614 145.951 410.938 151.042C415.643 156.582 418.245 163.395 420.423 170.201C422.016 175.18 422.954 179.429 422.954 184.653C422.954 189.395 420.162 193.203 417.396 196.834C415.317 199.563 410.99 201.457 407.603 201.683C403.652 201.947 401.058 201.105 397.622 199.578C395.856 198.793 394.898 196.224 394.097 194.658C392.937 192.391 391.57 190.297 390.81 187.846C389.321 183.049 387.111 178.528 385.488 173.773C383.903 169.131 383.305 164.157 381.443 159.604C380.251 156.69 378.25 152.998 378.25 149.765" stroke="#FF8D00" stroke-width="36" stroke-linecap="round"/>
<path d="M750.39 258.389C765.805 258.389 820.39 266.889 836.89 280.333C866.89 303.389 877.867 324.366 897.89 344.389C913.586 360.085 934.563 388.83 937.445 410.444C940.151 430.742 940.821 451.986 941.39 472.444C941.974 493.485 944.39 514.495 944.39 535.889C944.39 558.059 941.555 576.338 936.167 597.889C929.781 623.435 923.609 654.325 907.39 675.667C899.867 685.565 889.13 689.976 877.39 693.889C853.305 701.917 830.081 716.79 805.278 704.389C784.571 694.035 767.911 685.492 751.39 669.889C726.288 646.182 722.274 619.551 700.89 593.889C693.452 584.964 684.743 576.458 674.89 569.889C632.3 541.496 584.204 523.986 541.167 496.889C532.193 491.239 521.828 487.986 512.945 482.333C505.259 477.442 497.254 472.865 490.834 466.444C488.131 463.742 485.488 461.661 482.389 458.889C464.892 443.233 442.199 427.347 423.223 412.278C400.943 394.585 393.877 388.469 379.834 362.389C371.967 347.778 364.86 331.855 359.612 316.111C353.645 298.212 353.462 279.466 349.445 261.389C348.76 258.308 349.449 254.196 347.889 251.389M347.889 251.389C345.736 247.513 350.53 246.889 353.389 246.889C357.029 246.889 358.013 250.996 360.945 251.833C370.798 254.649 380.361 257.889 390.834 257.889C400.846 257.889 410.479 254.889 420.334 254.889C426.62 254.889 432.049 253.161 438.167 252.889C474.244 251.285 482.389 225.839 482.389 192.889C482.389 181.488 481.926 170.153 481.389 158.889C480.664 143.657 470.148 127.993 459.167 118.111C450.384 110.206 428.78 99.6528 417.889 94.4445C397.086 84.4951 380.818 61.7647 358 47C349.5 41.5 334.5 32 326 29.5C318.5 45.5 322.389 75 322.389 91.9444C322.389 103.097 324.389 113.832 324.389 124.889C324.389 136.471 327.872 146.447 330.167 157.667C331.502 164.19 333.378 170.096 334.889 176.444M347.889 251.389C347.733 246.078 336.121 181.618 334.889 176.444M334.889 176.444L339.89 203.889C304.14 217.639 237.334 250.944 210.612 277.667C190.647 297.631 164.436 308.438 146.89 331.833C132.753 350.682 119.441 365.676 108.834 386.889C84.9569 434.643 59.2265 495.856 53.3339 548.889C50.8895 570.889 52.3895 619.86 52.3895 641.333C52.3895 660.48 40.3898 685.889 36.3898 693.389C35.4814 693.923 23.9027 715.905 24.0006 715.945C26.9433 717.122 28.8222 719.084 31.834 719.945C56.0806 726.872 68.3089 734.889 97.8895 734.889C117.728 734.889 141.839 741.69 161.834 744.889C184.485 748.513 207.24 751.46 229.89 754.945C345.117 772.672 307.326 753.976 313.389 650.889C313.426 650.268 313.389 655.644 313.389 657.111C313.389 663.696 313.297 670.137 314.167 676.667C316.227 692.111 316.389 708.064 316.389 723.667C316.389 745.079 316.657 782.194 308.889 802.389C303.131 817.361 298.623 830.436 285.834 840.667C271.185 852.386 257.652 865.748 242.612 876.889C234.15 883.157 224.37 888.168 216.39 894.889C212.13 898.476 208.355 901.625 204.334 905.445C201.439 908.195 197.371 911.27 194.945 914.389C193.866 915.777 189.243 917.889 191.001 917.889C224.506 917.889 256.774 929.889 291.167 929.889C300.542 929.889 308.825 932.889 318.389 932.889C331.075 932.889 343.76 932.889 356.445 932.889C366.697 932.889 376.479 934.889 386.834 934.889C397.575 934.889 408.674 940.498 419.612 940.889C432.63 941.354 445.024 945.889 458.612 945.889C463.602 945.889 468.019 944.82 472.834 943.945C476.609 943.258 477.389 940.338 477.389 936.389C477.389 914.975 476.523 893.412 479.334 872.333C481.678 854.754 468.39 839.389 459.89 824.889C451.39 808.389 436.736 789.847 430.167 772.111C421.765 749.426 419.364 721.181 406.889 700.389C402.362 692.843 397.213 685.361 394.389 676.889" stroke="black" stroke-width="48" stroke-linecap="round"/>
<path d="M538.39 672.889C538.39 686.189 535.39 698.904 535.39 712.389C535.39 727.237 536.39 743.017 536.39 758.389C536.39 775.982 529.47 790.761 524.168 806.667C521.325 815.196 517.213 823.208 514.168 831.667C510.101 842.962 502.998 853.569 496.945 863.945C493.468 869.906 490.165 887.272 483.834 890.889C479.649 893.28 477.39 910.838 477.39 915.333C477.39 924.868 479.991 942.889 491.612 942.889C497.41 942.889 502.732 944.591 508.39 944.889C513.167 945.14 517.733 945.889 522.612 945.889C530.755 945.889 538.409 947.667 546.39 947.889C570.639 948.563 595.003 948.438 619.168 947.889C650.207 947.184 682.497 944.266 713.39 940.833C721.469 939.936 808.103 929.649 775.612 916.111C771.478 914.389 767.498 912.11 763.168 910.667C750.362 906.398 737.433 901.133 725.39 895.111C701.671 883.252 683.373 871.376 662.89 855.445C632.337 831.681 638.146 798.389 625.39 768.889C621.387 759.633 622.39 745.326 622.39 735.333C622.39 726.133 624.39 717.242 624.39 707.889C624.39 699.94 624.788 690.685 621.39 683.889" stroke="black" stroke-width="48" stroke-linecap="round"/>
<path d="M629.39 760.889C633.884 760.889 638.144 763.639 642.39 763.889C648.997 764.278 655.109 763.684 661.39 761.889C676.018 757.71 692.696 750.598 706.39 744.111C714.652 740.198 723.79 736.638 731.612 731.889C739.229 727.265 746.552 724.727 752.89 718.389C757.665 713.614 763.391 708.331 766.89 702.889C769.48 698.86 774.39 693.27 774.39 687.889" stroke="black" stroke-width="48" stroke-linecap="round"/>
<path d="M754.168 277.111C755.988 279.538 757.066 285.906 757.446 288.944C758.214 295.091 762.754 302.073 764.612 308.111C771.857 331.658 757.39 360.457 757.39 384.444C757.39 394.254 756.39 404.272 756.39 413.889C756.39 427.817 757.386 437.622 760.446 451.389C761.616 456.655 767.533 464.912 770.168 469.889C772.973 475.187 780.187 479.373 785.39 482.111C812.859 496.568 821.63 491.889 852.39 491.889" stroke="black" stroke-width="48" stroke-linecap="round"/>
<path d="M644.39 247.889C638.409 247.889 642.82 254.264 645.834 250.389C649.053 246.251 644.099 245.889 641.39 245.889" stroke="black" stroke-width="48" stroke-linecap="round"/>
<path d="M762.39 298.889C758.664 298.061 757.579 290.071 755.612 287.667C731.84 258.611 719.962 224.966 691.612 197.667C674.684 181.365 653.357 168.847 633.334 156.833C613.208 144.757 594.038 134.432 572.057 126.333C546.816 117.034 510.995 116.359 484.834 123.833C480.484 125.076 475.654 125.183 471.39 126.889" stroke="black" stroke-width="48" stroke-linecap="round"/>
<path d="M363.885 909.781C363.971 909.74 364.085 909.751 364.178 909.733C364.255 909.718 364.331 909.703 364.409 909.694C364.594 909.674 364.8 909.704 364.984 909.721C365.205 909.742 365.431 909.765 365.65 909.799C365.893 909.837 366.137 909.907 366.383 909.917C366.556 909.924 366.728 909.967 366.9 909.983C367.153 910.007 367.405 910.022 367.658 910.051C367.959 910.085 368.264 910.099 368.566 910.122C368.833 910.143 369.096 910.199 369.364 910.216C369.749 910.239 370.138 910.317 370.523 910.321C370.821 910.324 371.111 910.402 371.406 910.411C371.726 910.422 372.047 910.473 372.363 910.522C372.872 910.601 373.391 910.598 373.899 910.673C374.133 910.707 374.371 910.695 374.605 910.729C374.836 910.763 375.086 910.775 375.32 910.785C375.634 910.798 375.948 910.837 376.263 910.845C376.376 910.849 376.489 910.874 376.602 910.875C376.753 910.877 376.906 910.881 377.056 910.898C377.199 910.915 377.347 910.905 377.491 910.905C377.634 910.905 377.776 910.92 377.919 910.92C378.16 910.92 378.401 910.92 378.642 910.92C379.723 910.92 380.796 911.04 381.877 911.04C382.878 911.04 383.877 911.085 384.876 911.085C385.265 911.085 385.652 911.115 386.038 911.115C386.246 911.115 386.452 911.123 386.66 911.13C386.746 911.133 386.838 911.144 386.923 911.157C387.002 911.169 387.083 911.152 387.161 911.168C387.24 911.184 387.321 911.205 387.402 911.205C387.501 911.205 387.592 911.248 387.691 911.25C387.852 911.254 388.014 911.308 388.174 911.326C388.283 911.338 388.42 911.354 388.522 911.389C388.614 911.419 388.752 911.475 388.849 911.475" stroke="black" stroke-linecap="round"/>
<path d="M380.467 911.37C380.077 911.308 379.679 911.325 379.285 911.325C378.752 911.325 378.22 911.33 377.689 911.295C377.217 911.265 376.745 911.238 376.273 911.224C376.122 911.219 375.972 911.215 375.821 911.209C375.811 911.208 375.622 911.186 375.702 911.231C375.969 911.381 376.304 911.46 376.601 911.518C376.958 911.588 377.339 911.647 377.704 911.655C377.774 911.657 377.699 911.651 377.679 911.648C377.529 911.628 377.38 911.6 377.229 911.584C376.413 911.495 375.583 911.495 374.763 911.491C373.609 911.485 372.451 911.462 371.3 911.367C371.018 911.344 370.734 911.277 370.457 911.229C369.775 911.11 369.094 910.969 368.417 910.823C367.596 910.646 366.765 910.44 365.972 910.162C365.778 910.094 365.592 910.01 365.399 909.94C365.294 909.902 365.2 909.85 365.098 909.804C364.976 909.75 364.841 909.735 364.718 909.683C364.509 909.593 364.285 909.498 364.061 909.451C363.604 909.356 363.142 909.29 362.673 909.286C361.716 909.278 360.762 909.322 359.806 909.346C359.731 909.348 359.655 909.344 359.585 909.373C359.494 909.41 359.78 909.406 359.878 909.406C360.146 909.407 360.414 909.403 360.683 909.414C361.309 909.438 361.936 909.422 362.562 909.448C362.987 909.465 363.412 909.496 363.838 909.496C364.623 909.496 365.403 909.542 366.185 909.609C366.761 909.658 367.337 909.712 367.913 909.769C368.657 909.844 369.399 909.949 370.145 909.998C371.032 910.057 371.923 910.086 372.807 910.179C373.798 910.283 374.789 910.383 375.779 910.497C377.474 910.693 379.178 910.818 380.881 910.912C382.144 910.982 383.402 911.089 384.662 911.19C385.109 911.226 385.554 911.281 386.001 911.317C386.449 911.353 386.899 911.415 387.349 911.415" stroke="black" stroke-linecap="round"/>
<path d="M458.649 878.746V887.473H457.592V879.854H457.541L455.41 881.269V880.195L457.592 878.746H458.649Z" fill="black"/>
</svg>
